<mxfile host="app.diagrams.net" agent="Mozilla/5.0 (Windows NT 10.0; Win64; x64) AppleWebKit/537.36 (KHTML, like Gecko) Chrome/128.0.0.0 Safari/537.36 Edg/128.0.0.0" version="24.7.7">
  <diagram name="Página-1" id="j4Q7XIAzl5aHtjc_Au4m">
    <mxGraphModel dx="1895" dy="451" grid="1" gridSize="10" guides="1" tooltips="1" connect="1" arrows="1" fold="1" page="1" pageScale="1" pageWidth="827" pageHeight="1169" math="0" shadow="0">
      <root>
        <mxCell id="0" />
        <mxCell id="1" parent="0" />
        <mxCell id="s6FO2uf2t72eA_e3wLJF-3" style="edgeStyle=orthogonalEdgeStyle;rounded=0;orthogonalLoop=1;jettySize=auto;html=1;entryX=0.5;entryY=0;entryDx=0;entryDy=0;" edge="1" parent="1" source="s6FO2uf2t72eA_e3wLJF-1">
          <mxGeometry relative="1" as="geometry">
            <mxPoint x="220" y="120" as="targetPoint" />
          </mxGeometry>
        </mxCell>
        <mxCell id="s6FO2uf2t72eA_e3wLJF-1" value="Vehículo" style="rounded=0;whiteSpace=wrap;html=1;" vertex="1" parent="1">
          <mxGeometry x="160" y="40" width="120" height="60" as="geometry" />
        </mxCell>
        <mxCell id="s6FO2uf2t72eA_e3wLJF-23" style="edgeStyle=orthogonalEdgeStyle;rounded=0;orthogonalLoop=1;jettySize=auto;html=1;entryX=0.5;entryY=0;entryDx=0;entryDy=0;" edge="1" parent="1" source="s6FO2uf2t72eA_e3wLJF-8" target="s6FO2uf2t72eA_e3wLJF-9">
          <mxGeometry relative="1" as="geometry" />
        </mxCell>
        <mxCell id="s6FO2uf2t72eA_e3wLJF-8" value="Obtención de datos de sensores, filtrado y procesado" style="rounded=1;whiteSpace=wrap;html=1;" vertex="1" parent="1">
          <mxGeometry x="160" y="120" width="120" height="60" as="geometry" />
        </mxCell>
        <mxCell id="s6FO2uf2t72eA_e3wLJF-25" style="edgeStyle=orthogonalEdgeStyle;rounded=0;orthogonalLoop=1;jettySize=auto;html=1;" edge="1" parent="1" source="s6FO2uf2t72eA_e3wLJF-9" target="s6FO2uf2t72eA_e3wLJF-24">
          <mxGeometry relative="1" as="geometry" />
        </mxCell>
        <mxCell id="s6FO2uf2t72eA_e3wLJF-9" value="Transmisión de datos y solicitud a cargas útiles" style="rounded=1;whiteSpace=wrap;html=1;" vertex="1" parent="1">
          <mxGeometry x="160" y="200" width="120" height="60" as="geometry" />
        </mxCell>
        <mxCell id="s6FO2uf2t72eA_e3wLJF-11" value="Carga Útil #1" style="shape=cylinder3;whiteSpace=wrap;html=1;boundedLbl=1;backgroundOutline=1;size=15;" vertex="1" parent="1">
          <mxGeometry x="60" y="110" width="60" height="80" as="geometry" />
        </mxCell>
        <mxCell id="s6FO2uf2t72eA_e3wLJF-12" value="Carga Útil #2" style="shape=cylinder3;whiteSpace=wrap;html=1;boundedLbl=1;backgroundOutline=1;size=15;" vertex="1" parent="1">
          <mxGeometry x="-40" y="110" width="60" height="80" as="geometry" />
        </mxCell>
        <mxCell id="s6FO2uf2t72eA_e3wLJF-14" style="edgeStyle=orthogonalEdgeStyle;rounded=0;orthogonalLoop=1;jettySize=auto;html=1;exitX=0.145;exitY=1;exitDx=0;exitDy=-4.35;exitPerimeter=0;" edge="1" parent="1" source="s6FO2uf2t72eA_e3wLJF-13">
          <mxGeometry relative="1" as="geometry">
            <mxPoint x="160" y="250" as="targetPoint" />
            <Array as="points">
              <mxPoint x="-130" y="186" />
              <mxPoint x="-130" y="250" />
              <mxPoint x="160" y="250" />
            </Array>
          </mxGeometry>
        </mxCell>
        <mxCell id="s6FO2uf2t72eA_e3wLJF-13" value="Carga Útil #n" style="shape=cylinder3;whiteSpace=wrap;html=1;boundedLbl=1;backgroundOutline=1;size=15;" vertex="1" parent="1">
          <mxGeometry x="-140" y="110" width="60" height="80" as="geometry" />
        </mxCell>
        <mxCell id="s6FO2uf2t72eA_e3wLJF-15" style="edgeStyle=orthogonalEdgeStyle;rounded=0;orthogonalLoop=1;jettySize=auto;html=1;entryX=0.855;entryY=1;entryDx=0;entryDy=-4.35;entryPerimeter=0;" edge="1" parent="1" source="s6FO2uf2t72eA_e3wLJF-9" target="s6FO2uf2t72eA_e3wLJF-13">
          <mxGeometry relative="1" as="geometry" />
        </mxCell>
        <mxCell id="s6FO2uf2t72eA_e3wLJF-16" value="" style="endArrow=none;html=1;rounded=0;" edge="1" parent="1">
          <mxGeometry width="50" height="50" relative="1" as="geometry">
            <mxPoint x="-240" y="250" as="sourcePoint" />
            <mxPoint x="-130" y="250" as="targetPoint" />
          </mxGeometry>
        </mxCell>
        <mxCell id="s6FO2uf2t72eA_e3wLJF-17" value="" style="endArrow=classic;html=1;rounded=0;" edge="1" parent="1">
          <mxGeometry width="50" height="50" relative="1" as="geometry">
            <mxPoint x="-80" y="230" as="sourcePoint" />
            <mxPoint x="-240" y="230" as="targetPoint" />
          </mxGeometry>
        </mxCell>
        <mxCell id="s6FO2uf2t72eA_e3wLJF-18" value="" style="endArrow=classic;html=1;rounded=0;" edge="1" parent="1">
          <mxGeometry width="50" height="50" relative="1" as="geometry">
            <mxPoint x="10" y="230" as="sourcePoint" />
            <mxPoint x="10" y="186" as="targetPoint" />
          </mxGeometry>
        </mxCell>
        <mxCell id="s6FO2uf2t72eA_e3wLJF-19" value="" style="endArrow=classic;html=1;rounded=0;" edge="1" parent="1">
          <mxGeometry width="50" height="50" relative="1" as="geometry">
            <mxPoint x="-30" y="186" as="sourcePoint" />
            <mxPoint x="-30" y="250" as="targetPoint" />
          </mxGeometry>
        </mxCell>
        <mxCell id="s6FO2uf2t72eA_e3wLJF-20" value="" style="endArrow=classic;html=1;rounded=0;" edge="1" parent="1">
          <mxGeometry width="50" height="50" relative="1" as="geometry">
            <mxPoint x="110" y="230" as="sourcePoint" />
            <mxPoint x="110" y="186" as="targetPoint" />
          </mxGeometry>
        </mxCell>
        <mxCell id="s6FO2uf2t72eA_e3wLJF-21" value="" style="endArrow=classic;html=1;rounded=0;" edge="1" parent="1">
          <mxGeometry width="50" height="50" relative="1" as="geometry">
            <mxPoint x="70" y="186" as="sourcePoint" />
            <mxPoint x="70" y="250" as="targetPoint" />
          </mxGeometry>
        </mxCell>
        <mxCell id="s6FO2uf2t72eA_e3wLJF-22" value="Hasta 16 dispositivos" style="text;html=1;align=center;verticalAlign=middle;whiteSpace=wrap;rounded=0;" vertex="1" parent="1">
          <mxGeometry x="-230" y="190" width="60" height="30" as="geometry" />
        </mxCell>
        <mxCell id="s6FO2uf2t72eA_e3wLJF-27" style="edgeStyle=orthogonalEdgeStyle;rounded=0;orthogonalLoop=1;jettySize=auto;html=1;" edge="1" parent="1" source="s6FO2uf2t72eA_e3wLJF-24" target="s6FO2uf2t72eA_e3wLJF-26">
          <mxGeometry relative="1" as="geometry" />
        </mxCell>
        <mxCell id="s6FO2uf2t72eA_e3wLJF-24" value="Almacenamiento de datos en SD" style="rounded=1;whiteSpace=wrap;html=1;" vertex="1" parent="1">
          <mxGeometry x="160" y="280" width="120" height="60" as="geometry" />
        </mxCell>
        <mxCell id="s6FO2uf2t72eA_e3wLJF-50" style="edgeStyle=orthogonalEdgeStyle;rounded=0;orthogonalLoop=1;jettySize=auto;html=1;entryX=0;entryY=0.5;entryDx=0;entryDy=0;" edge="1" parent="1" source="s6FO2uf2t72eA_e3wLJF-26" target="s6FO2uf2t72eA_e3wLJF-43">
          <mxGeometry relative="1" as="geometry" />
        </mxCell>
        <mxCell id="s6FO2uf2t72eA_e3wLJF-26" value="Transmisión de datos y recepción de comandos desde GCS" style="rounded=1;whiteSpace=wrap;html=1;" vertex="1" parent="1">
          <mxGeometry x="160" y="360" width="120" height="60" as="geometry" />
        </mxCell>
        <mxCell id="s6FO2uf2t72eA_e3wLJF-51" style="edgeStyle=orthogonalEdgeStyle;rounded=0;orthogonalLoop=1;jettySize=auto;html=1;entryX=1;entryY=0.5;entryDx=0;entryDy=0;" edge="1" parent="1" source="s6FO2uf2t72eA_e3wLJF-43" target="s6FO2uf2t72eA_e3wLJF-8">
          <mxGeometry relative="1" as="geometry">
            <Array as="points">
              <mxPoint x="380" y="150" />
            </Array>
          </mxGeometry>
        </mxCell>
        <mxCell id="s6FO2uf2t72eA_e3wLJF-43" value="Procesamiento de comandos" style="rounded=1;whiteSpace=wrap;html=1;" vertex="1" parent="1">
          <mxGeometry x="320" y="360" width="120" height="60" as="geometry" />
        </mxCell>
        <mxCell id="s6FO2uf2t72eA_e3wLJF-44" value="" style="shape=ext;double=1;rounded=0;whiteSpace=wrap;html=1;" vertex="1" parent="1">
          <mxGeometry y="350" width="120" height="80" as="geometry" />
        </mxCell>
        <mxCell id="s6FO2uf2t72eA_e3wLJF-45" value="" style="shape=image;verticalLabelPosition=bottom;labelBackgroundColor=default;verticalAlign=top;aspect=fixed;imageAspect=0;image=https://c8.alamy.com/compes/r4j6ta/lineas-en-blanco-y-negro-con-antena-de-satelite-r4j6ta.jpg;clipPath=inset(0% 0% 7.67% 0%);" vertex="1" parent="1">
          <mxGeometry x="20" y="380.03999999999996" width="33.72" height="39.91" as="geometry" />
        </mxCell>
        <mxCell id="s6FO2uf2t72eA_e3wLJF-46" value="" style="shape=image;verticalLabelPosition=bottom;labelBackgroundColor=default;verticalAlign=top;aspect=fixed;imageAspect=0;image=https://prints.ultracoloringpages.com/df8d2b2e448be38baae4f7af02338fa9.png;" vertex="1" parent="1">
          <mxGeometry x="60" y="375" width="50" height="50" as="geometry" />
        </mxCell>
        <mxCell id="s6FO2uf2t72eA_e3wLJF-47" value="GCS" style="text;html=1;align=center;verticalAlign=middle;whiteSpace=wrap;rounded=0;" vertex="1" parent="1">
          <mxGeometry x="30" y="350.04" width="60" height="30" as="geometry" />
        </mxCell>
        <mxCell id="s6FO2uf2t72eA_e3wLJF-48" value="" style="endArrow=classic;html=1;rounded=0;entryX=1;entryY=0.25;entryDx=0;entryDy=0;" edge="1" parent="1" target="s6FO2uf2t72eA_e3wLJF-44">
          <mxGeometry width="50" height="50" relative="1" as="geometry">
            <mxPoint x="160" y="370" as="sourcePoint" />
            <mxPoint x="210" y="320" as="targetPoint" />
          </mxGeometry>
        </mxCell>
        <mxCell id="s6FO2uf2t72eA_e3wLJF-49" value="" style="endArrow=classic;html=1;rounded=0;" edge="1" parent="1">
          <mxGeometry width="50" height="50" relative="1" as="geometry">
            <mxPoint x="120" y="410" as="sourcePoint" />
            <mxPoint x="160" y="410" as="targetPoint" />
          </mxGeometry>
        </mxCell>
      </root>
    </mxGraphModel>
  </diagram>
</mxfile>
